<svg id="Layer_1" data-name="Layer 1" xmlns="http://www.w3.org/2000/svg" viewBox="0 0 264.22 98.21"><defs><style>.cls-1,.cls-2{fill:#2f2b38;}.cls-2{font-size:15.62px;font-family:Nunito Sans;}.cls-3{letter-spacing:1px;}</style></defs><title>Carw Logo</title><path class="cls-1" d="M55.74,55.3l-0.64.64-1.45,1.29-1,.72-1.53,1.13L50,59.65l-1.61.88-0.87.64-1.85.88-1.21.4L43,62.68l-1.37.24-1.87.58-3.53.32-1.45.08-2,.16H28.56L27.19,64l-1.37-.16-1.37-.24-1.37-.32-1.21-.4-3.62-1-1.77-.64-1-.48-1.53-.88-1-.72-1-.88-1.19-.57L8.69,55.94,7.86,54.73,7,53.69,6.09,52.48,5.23,51.6,4.59,50.47,4,49.35l-1-1.78L2,44.28,1.45,42.67l-1-2.14L0.32,39.32,0.4,37.2,0.49,36,0.4,34.49l0.16-1.15L0.73,30.6l0.08-1.29L1,26.69l0.32-1.77,0.32-1.21,0.62-1.3,0.18-1,0.56-1.61,0.56-1.13,0.56-1.21,0.64-1.21L5.55,15l0.79-1,0.73-1.22L8,11.72l1-1L9.86,9.6l1.09-.69,1-.8,2.57-1.77,1-.64L16.66,5l2.41-1.13,1.36-.36L21.72,3l3-.56,1.07-.32L27.19,2l2.58,0,1.69-.28,1.21,0.08,2.48,0.08,4.17,0.52,1.13,0.24L42.3,2.91l2.52,0.54,2.3,1.29,1.77,1L50,6.43,52.1,7.88l2.72,2.35,0.88,0.64,0.48,0.4,0.56,0.56,0.16,0.64-0.08.64-0.48.64-1,1.56-0.88.88L53.6,17l-0.88,1.43-0.88.88L50.47,21l-0.88,1-0.4.4L48.45,23l-0.56.24-0.56.08-0.56-.16-0.88-.48-2.7-1.93-1-.56-1.77-.8-1.13-.4-1.77-.48-2.12-1H32.89l-1.63.1-1.9.1-1.3.28-1.23.31-1.36.32-1.16.65L23,19.9l-1.35.76-0.59.69-0.86,1-0.93.81-0.56,1-0.56,1.13L17.7,26.51,17.3,27.8l-0.21,1.47-0.2,1.1-0.16,2.41v1.29l0.08,1.3,0.08,1.21,0.4,1.85,0.41,0.69,0.82,2,0.64,1.21L20.11,44l0.88,1,1.36,0.84L23.57,47l1.61,0.8L26.54,48l1.77,0.48,1.29,0.24,1.78,0.28h1.85l1.1-.35L35,48.54l1.92-.4,2-.72L40.21,47l1.21-.56,1-.56,1.53-1,1-.8,0.8-.56,0.48-.16,0.72,0.16,0.88,0.56,0.88,0.8,0.32,0.48,0.8,0.88,1.29,1.61,0.8,1,2.17,3.91,0.72,1,0.4,0.4,0.4,0.72V55.3Z" transform="translate(0 -1.67)"/><path class="cls-1" d="M122.76,61.08L123,62.2l-0.56.88-0.88.4-1,.16h-1.13l-1.85-.16-1.21-.08H112.7l-5,.32-1-.32-0.48-.64-0.4-.88-2.49-6.76-0.56-.8L102,54.16l-1-.08-4.44.09-1.69-.1-6-.47-4-.07-2.8.29L80.7,53.6H78l-1,.16-0.64.4-0.48,1-1.85,5.47-0.48,1.29-0.88,1-1.21.48-1.29-.08-4.67-.24H64.11l-5,.32-1,.08-1-.48-0.64-.88,0.08-1,0.16-.64,0.48-1.29,1.13-2.49,0.48-1.21,2-4.51,0.48-1.13,1.59-4.57,0.84-1.41,2-4.07,0.48-1.21,2-5.42,1.25-2.58,2.29-3.79,0.94-2.63,1.95-4.66,1.69-2.88L76.9,15.3l1.53-3.7,0.48-1.21,1.45-3.3,0.4-.88,0.8-.48,1.21-.24,3.7-.16h6.28l3.7,0.08,1.37,0.24,0.88,0.64,0.4,1,1.33,2.77,0.28,1.57,2,3.78,1,1.67L105,20.53l0.48,1.13,1.45,4.1,1,1.58,1.23,3.41,0.48,1.13,1.77,3.94,0.48,1.13,1.61,4L114,42.09l2.49,5,2,3.15L119,52l2.17,5.07ZM95.89,38.39l-0.32-1L93.8,31.87l-0.4-1.21-1.61-4.75-0.4-1-0.8-.56-1-.24-0.88.24-1,1.33-1.81,5-0.48,1.21L83.1,37.18l-0.24,1.21,0.24,1L84,39.76l1.13,0.16,5.41-.06L94,40.16l1-.32,0.64-.64Z" transform="translate(0 -1.67)"/><path class="cls-1" d="M184.87,63l-1,.32H178.2l-4.42-.08h-1.29l-5,.16h-1l-0.72-.32L165,62.45l-1.31-2.16L162,58.08l-1.74-2.47-2-2.21-1.91-2.84-1.91-1.88-2.91-3.37-0.56-.64-0.48-.24-1-.08-2.57-.16-1,.08-0.64.48-0.24,1-0.16,4.42,0.08,1.29L145.19,56l0.08,1.29,0.08,1.93v1.29l-0.08,1.29-0.16,1-0.4.4-0.88.24h-1.29l-3.86-.24-3.7.24h-1.29l-3.7-.24L129,63l-0.48-.32-0.16-.8-0.08-1.13-0.08-1.21V57.5l0.24-1.33,0.32-4.34V50.54l-0.24-4.34-0.08-1.29-0.08-4.26,0-1.32L128.62,35V33.72l-0.24-4.34L128.29,28l0.33-4.21V22.46l0.16-4.26-0.23-1.58,0.15-4V11.28l-0.16-2.65,0.08-1.21,0.08-.48,0.24-1,0.48-.64,1-.24L131,4.92l1.21-.08L135.86,5l9.57,0.32L150.9,5h1.29l5.31,0.32h3.06l1.37,0.08,1.21,0.24,1.69,0.48L166,6.53,167.23,7l1.29,0.48,1.21,0.56,1,0.64,1.53,1,0.88,0.72,0.8,0.8,0.8,1,1.13,1.61,0.72,1,1,1.53,0.56,1.13,0.56,1.21,0.4,1.29,0.24,1.29,0.08,1.29,0.16,1.77v1.29L179.54,27l-0.16,1.37-0.24,1.37L178.82,31l-0.48,1.21-0.56,1.21L177,34.61l-0.72,1-0.72,1-0.72.88-1.29,1.29-0.88.72-1.61.88-1,.56-1,.56-1,.24-0.64.24,0.32,0.64,4.32,4.1,0.72,1,2.9,3.94,0.8,1,3.61,4,1.51,1,2.49,2.9,0.72,0.88,0.4,0.88ZM157.66,32l1.77-.32,1-.4,1-.56,0.8-1,0.56-1.21,0.32-1.29L163.21,26l-0.08-1.37L163,23.27l-0.32-1.21-0.56-1.21-0.72-1-0.88-.72-1.13-.48-1.77-.4-1.29-.16-4-.08H151l-4.1.24-1,.08-0.56.24-0.48.48-0.08.88,0.08,1.85L145,23.11l0.16,1.37,0.08,1.37-0.16,4.42,0.08,0.88,0.16,0.48,0.56,0.24,1,0.16,3.21-.24h1.29Z" transform="translate(0 -1.67)"/><path class="cls-1" d="M264.14,7.74L261,17.88l-0.48,1.21-0.66,4.51-0.48,1.21-1.93,4.51L257,30.51,255.75,35l-0.48,1.29-2,4.18-0.48,1.29-1.29,4.59-0.4,1.21L250.41,52,250,53.19l-1.45,4.51L248.16,59l-0.62,4.51-0.32.8-0.4.4-0.56.08-6.13-.16-6.3-.09-0.8-.16-0.4-.64-2-4.25-0.4-1.13-1.45-4.18L228.45,53,227,48.93l-0.4-1.13L225,43.7l-0.48-1.13-1.45-4-0.4-.72h-0.24l-0.32.72-1.45,4.1-0.4,1.13-1.93,3.86-0.4,1.13L216.62,53l-0.4,1.13-1.37,4.1-0.48,1.13-1.53,4-0.4.88-0.88.4-5-.4h-1.29l-6.51.1L198,64l-0.32-1-1.44-4-0.4-1.21L195,53.56l-0.4-3-0.87-2.62-0.45-1.67-1-4.34-0.4-1.29-1.37-4.59-0.4-1.21-4-10.14-0.48-1.21-0.91-4.63-0.94-3.27L183,13.53l-0.56-1.21-1.85-4.59-0.08-1L181,6.21,181.89,6h1.21l3.14,0.24h1.29l5.55,0.08h4.34l1,0.08,0.32,0.32,0.16,0.8L200.14,11l0.45,3.17L201.67,19l0.63,1.11,1.81,5,0.4,1.21,1.55,4.3,0.24,1.29,0.31,1.52,0.17,0.48a2.21,2.21,0,0,0,.71.49,1.72,1.72,0,0,0,.68-0.78l0.35-.59,0.4-1.13,0.84-3.55,0.32-1.21,1.21-3.94L211.63,22,213,17.8l0.32-1.13,1.29-4.18,0.4-1.13,0.69-3.53L216,6.94l0.4-.4,0.88-.16,4.54-.25,1.21-.08,1.77,0.08,1.63,0.09,1.21,0.08,0.8,0.32L229,7.43l0.24,0.64,0.49,1.57,0.45,1.72,0.4,1.13,1.21,4.18,0.32,1.13L233.35,22l0.32,1.13,1,4.26L235,28.5l1.17,2.39,0.43,1.06,0.59,1.13,0.31,0.87a1.37,1.37,0,0,0,.6.22,2.45,2.45,0,0,0,.66-1.24l0.32-1.21L239.76,30l0.19-2.1,0.64-1.77,0.4-1.29,0.9-3.07,0.4-1.29L243,16.89l0.48-1.21,1.15-3.44L245,11,245.8,8l0.32-1,0.48-.56,1-.16,4.26,0.32h1.29l4.34-.24h1.29L263,6.69h0.88l0.32,0.24Z" transform="translate(0 -1.67)"/><text class="cls-2" transform="translate(0 94.21)">C<tspan x="10.75" y="0">O</tspan><tspan x="22.04" y="0">ALITION of</tspan><tspan x="99.15" y="0"> </tspan><tspan x="103.71" y="0">A</tspan><tspan x="114.65" y="0">NTI</tspan><tspan class="cls-3" x="139.16" y="0"> </tspan><tspan x="144.66" y="0">R</tspan><tspan x="155.24" y="0">A</tspan><tspan x="166.11" y="0">CI</tspan><tspan x="180.5" y="0">S</tspan><tspan x="189.75" y="0">T WHIT</tspan><tspan x="244.84" y="0">E</tspan><tspan x="253.73" y="0">S</tspan></text></svg>