<svg xmlns="http://www.w3.org/2000/svg" viewBox="0 0 264.223 98.207"><title>Asset 2</title><g id="Layer_2" data-name="Layer 2"><g id="Layer_2-2" data-name="Layer 2"><path d="M55.74,53.632l-.644.644-1.448,1.287-.965.724-1.529,1.126-1.146.569-1.609.885-.866.637-1.85.885-1.207.4-1.508.221-1.368.241-1.871.583L36.2,62.16l-1.448.08-2.011.161H28.562l-1.368-.08-1.368-.161-1.368-.241L23.092,61.6l-1.207-.4-3.62-.965-1.77-.644L15.449,59.1l-1.529-.885-.965-.724-.985-.876-1.187-.572-2.092-1.77-.834-1.212-.885-1.046-.885-1.207-.856-.88-.644-1.126-.563-1.126L3.065,45.9,2.014,42.61,1.451,41,.485,38.86.325,37.653.4,35.531l.08-1.207-.08-1.5.161-1.154.161-2.735.08-1.287.241-2.627.322-1.77.322-1.207.622-1.3L2.5,19.71,3.06,18.1l.563-1.126.563-1.207.644-1.207.724-1.207.794-.956.734-1.216.885-1.126L8.933,9.01l.924-1.077,1.087-.693.965-.8,2.574-1.77,1.046-.644,1.126-.644,2.413-1.126,1.358-.36,1.3-.525L24.758.806,25.827.483,27.195.322,29.77.285,31.458,0l1.207.08,2.48.08L39.32.684l1.126.241,1.85.322,2.518.544,2.3,1.286,1.77,1.046,1.126.644L52.1,6.215l2.719,2.352.885.644.483.4.563.563.161.644-.08.644-.483.644-.974,1.559-.885.885-.885.8-.885,1.434-.885.885-1.368,1.609-.885.965-.4.4-.724.644-.563.241-.563.08-.563-.161-.885-.483-2.7-1.93-1.046-.563-1.77-.8-1.126-.4-1.77-.483L35.35,15.746H32.895l-1.625.1-1.9.1-1.3.277-1.228.311-1.36.322-1.164.646-1.279.726L21.693,19l-.588.691-.864.968-.93.81-.563,1.046-.563,1.126L17.7,24.845l-.4,1.287-.205,1.473-.2,1.1-.161,2.413v1.287l.08,1.3.08,1.207.4,1.85.41.694.822,1.955.644,1.207.941,1.7.885.965,1.357.841,1.217,1.17,1.609.8,1.361.285,1.77.483,1.287.241,1.777.278h1.85l1.1-.351.644-.161,1.917-.4,2.011-.724,1.312-.454,1.207-.563,1.046-.563,1.529-.965,1.046-.8.8-.563.483-.161.724.161.885.563.885.8.322.483.8.885,1.287,1.609.8.965,2.172,3.914.724.965.4.4.4.724Z" fill="#2f2b37"/><path d="M122.761,59.41,123,60.537l-.563.885-.885.4-1.046.161h-1.126l-1.85-.161-1.207-.08H112.7l-4.988.322-1.046-.322-.483-.644-.4-.885-2.494-6.758-.563-.8-.724-.161-.965-.08L96.6,52.5l-1.687-.1-6.018-.468-4.047-.067-2.8.294L80.7,51.929H77.951L76.9,52.09l-.644.4-.483.965-1.85,5.471-.483,1.287-.885,1.046-1.207.483-1.287-.08L65.4,61.422H64.113l-4.988.322-1.046.08-.965-.483-.644-.885.08-1.046.161-.644.483-1.287,1.126-2.494.483-1.207,2.011-4.505.483-1.126,1.586-4.575.841-1.413,2-4.069.483-1.207,2.005-5.418,1.252-2.58,2.294-3.79.942-2.632L74.647,17.8l1.694-2.882.563-1.287,1.529-3.7.483-1.207,1.448-3.3.4-.885.8-.483,1.207-.241,3.7-.161h6.275l3.7.08,1.368.241.885.644.4,1.046,1.327,2.774.282,1.57,2.011,3.781.965,1.674,1.288,3.394.483,1.126,1.448,4.1,1.021,1.582,1.232,3.406.483,1.126,1.77,3.942.483,1.126,1.609,4.022.483,1.126,2.494,4.988,2.006,3.146.488,1.761,2.172,5.068ZM95.891,36.724l-.322-1.046L93.8,30.207,93.4,29l-1.609-4.747-.4-1.046-.8-.563L89.535,22.4l-.885.241L87.636,23.98l-1.808,4.975-.483,1.207L83.1,35.517l-.241,1.207.241.965.885.4,1.126.161,5.409-.064,3.44.306,1.046-.322.644-.644Z" fill="#2f2b37"/><path d="M184.874,61.341l-1.046.322H178.2l-4.425-.08h-1.287l-5.041.161H166.4l-.724-.322-.644-.644-1.309-2.158-1.743-2.211-1.743-2.466L158.2,51.733l-1.913-2.842-1.913-1.877-2.906-3.371L150.9,43l-.483-.241-.965-.08-2.574-.161-1.046.08-.644.483-.241,1.046-.161,4.425.08,1.287.322,4.505.08,1.287.08,1.931v1.287l-.08,1.287-.161.965-.4.4-.885.241h-1.287l-3.862-.241-3.7.241h-1.287l-3.7-.241-.965-.161-.483-.322-.161-.8-.08-1.126-.08-1.207V55.831l.241-1.328.322-4.344V48.872l-.241-4.344-.08-1.287-.08-4.264-.017-1.317.258-4.315V32.058l-.241-4.344-.087-1.419.328-4.212V20.795l.161-4.264-.232-1.585L128.7,10.9V9.612l-.161-2.655.08-1.207.08-.483.241-1.046.483-.644.965-.241.644-.08,1.207-.08,3.62.161,9.573.322,5.471-.322h1.287l5.31.322h3.057l1.368.08,1.207.241,1.689.483,1.207.4,1.207.483,1.287.483,1.207.563,1.046.644L172.3,8.084l.885.724.8.8.8.965,1.126,1.609.724,1.046.965,1.529.563,1.126.563,1.207.4,1.287.241,1.287.08,1.287.161,1.77v1.287l-.08,1.287-.161,1.368-.241,1.368-.322,1.287-.483,1.207-.563,1.207-.724,1.207-.724,1.046-.724.965-.724.885-1.287,1.287-.885.724-1.609.885-.965.563-1.046.563-1.046.241-.644.241.322.644,4.317,4.1.724.965L175.65,50l.8.965,3.606,4.022,1.515.965,2.494,2.9.724.885.4.885ZM157.657,30.368l1.77-.322,1.046-.4.965-.563.8-.965.563-1.207.322-1.287.08-1.287-.08-1.368-.161-1.368-.322-1.207-.563-1.207-.724-.965-.885-.724-1.126-.483-1.77-.4-1.287-.161-4.022-.08H150.98l-4.1.241-.965.08-.563.241-.483.483-.08.885.08,1.85.161,1.287.161,1.368.08,1.368-.161,4.425.08.885.161.483.563.241.965.161,3.212-.241h1.287Z" fill="#2f2b37"/><path d="M264.142,6.073l-3.151,10.137-.483,1.207-.657,4.505-.483,1.207-1.931,4.505-.4,1.207-1.287,4.505-.483,1.287-2.011,4.183-.483,1.287-1.287,4.586-.4,1.207-.671,4.425-.4,1.207-1.448,4.505-.4,1.287-.625,4.505-.322.8-.4.4-.563.08-6.133-.161-6.3-.089-.8-.161-.4-.644L230.62,57.8l-.4-1.126-1.448-4.183-.322-1.126L227,47.263l-.4-1.126-1.609-4.1-.483-1.126-1.448-4.022-.4-.724h-.241l-.322.724-1.448,4.1-.4,1.126-1.931,3.862-.4,1.126-1.287,4.264-.4,1.126-1.368,4.1-.483,1.126-1.529,4.022-.4.885-.885.4-4.988-.4h-1.287l-6.512.1-.724-.4-.322-.965-1.439-4.044-.4-1.207-.89-4.222-.4-3-.865-2.616-.446-1.667-.979-4.344-.4-1.287-1.368-4.586-.4-1.207L186.1,23.047l-.483-1.207-.908-4.632-.941-3.267-.754-2.076-.563-1.207-1.85-4.586-.08-.965.483-.563.885-.241H183.1l3.138.241h1.287l5.551.08h4.344l1.046.08.322.322.161.8,1.192,3.492.446,3.168,1.082,4.793L202.3,18.4l1.813,5.039.4,1.207,1.551,4.3.241,1.287.31,1.525.173.475s.551.52.714.494c.319-.05.68-.784.68-.784l.354-.589.4-1.126.843-3.554.322-1.207,1.207-3.942.322-1.207L213,16.129,213.323,15l1.287-4.183.4-1.126.692-3.533.322-.885.4-.4.885-.161,4.537-.248,1.207-.08,1.77.08,1.635.089,1.207.08.8.322.483.8.241.644.485,1.575.455,1.716.4,1.126L231.746,15l.322,1.126,1.287,4.183.322,1.126.965,4.264.4,1.126,1.17,2.39.428,1.058.591,1.13.312.869s.444.271.6.223c.363-.113.656-1.242.656-1.242l.322-1.207.644-1.689.189-2.1.644-1.77.4-1.287.9-3.072.4-1.287.657-3.62.483-1.207,1.152-3.443.4-1.207.8-3.057.322-.965.483-.563.965-.161,4.264.322h1.287l4.344-.241h1.287l4.264.322h.885l.322.241Z" fill="#2f2b37"/><text transform="translate(0 94.207)" font-size="15.624" fill="#2f2b37" font-family="Nunito-Regular, NunitoSans-Light, Nunito Sans"><tspan letter-spacing="0.011em">C</tspan><tspan x="10.749" y="0" letter-spacing="-0.034em">O</tspan><tspan x="22.045" y="0" letter-spacing="0em">ALITION of</tspan><tspan x="99.147" y="0" letter-spacing="0.04em"> </tspan><tspan x="103.709" y="0" letter-spacing="-0.02em">A</tspan><tspan x="114.645" y="0">NTI</tspan><tspan x="139.159" y="0" letter-spacing="0.1em"> </tspan><tspan x="144.658" y="0" letter-spacing="-0.005em">R</tspan><tspan x="155.235" y="0" letter-spacing="-0.024em">A</tspan><tspan x="166.109" y="0">CI</tspan><tspan x="180.499" y="0" letter-spacing="-0.015em">S</tspan><tspan x="189.748" y="0">T WHIT</tspan><tspan x="244.837" y="0" letter-spacing="-0.01em">E</tspan><tspan x="253.727" y="0">S</tspan></text></g></g></svg>